<svg xmlns="http://www.w3.org/2000/svg" xmlns:xlink="http://www.w3.org/1999/xlink" width="324" zoomAndPan="magnify" viewBox="0 0 242.87999 119.999999" height="160" preserveAspectRatio="xMidYMid meet" version="1.0"><defs><clipPath id="5b6778a320"><path d="M 0 0.03125 L 242.761719 0.03125 L 242.761719 119.222656 L 0 119.222656 Z M 0 0.03125 " clip-rule="nonzero"/></clipPath><clipPath id="22a9cc2314"><path d="M 0 0.03125 L 237 0.03125 L 237 119.222656 L 0 119.222656 Z M 0 0.03125 " clip-rule="nonzero"/></clipPath><clipPath id="4065537691"><path d="M 203 89 L 238 89 L 238 119.222656 L 203 119.222656 Z M 203 89 " clip-rule="nonzero"/></clipPath><clipPath id="5e49c2b676"><path d="M 162 0.03125 L 242.65625 0.03125 L 242.65625 17 L 162 17 Z M 162 0.03125 " clip-rule="nonzero"/></clipPath><clipPath id="bd89c5abd0"><rect x="0" width="243" y="0" height="120"/></clipPath><clipPath id="780ac8ca56"><path d="M 0 4.394531 L 233.882812 4.394531 L 233.882812 119.835938 L 0 119.835938 Z M 0 4.394531 " clip-rule="nonzero"/></clipPath><clipPath id="2adbc767b2"><path d="M 0 0.394531 L 228 0.394531 L 228 115.730469 L 0 115.730469 Z M 0 0.394531 " clip-rule="nonzero"/></clipPath><clipPath id="57ee4a97b1"><path d="M 195 86 L 229 86 L 229 115.730469 L 195 115.730469 Z M 195 86 " clip-rule="nonzero"/></clipPath><clipPath id="5d76a725e5"><path d="M 156 0.394531 L 233.800781 0.394531 L 233.800781 17 L 156 17 Z M 156 0.394531 " clip-rule="nonzero"/></clipPath><clipPath id="aa2cf71d02"><rect x="0" width="234" y="0" height="116"/></clipPath></defs><g clip-path="url(#5b6778a320)"><g transform="matrix(1, 0, 0, 1, -0, -0.000000000000000527)"><g clip-path="url(#bd89c5abd0)"><g clip-path="url(#22a9cc2314)"><path fill="#ffffff" d="M 149.527344 1.214844 C 143.640625 -0.257812 137.367188 -0.390625 131.480469 1.128906 C 129.621094 1.601562 127.753906 2.011719 125.9375 2.628906 C 129.070312 2.59375 132.222656 2.714844 135.308594 3.265625 C 136.113281 3.433594 136.992188 3.433594 137.691406 3.894531 C 125.144531 4.226562 112.503906 7.097656 101.519531 13.289062 C 96.207031 16.378906 91.261719 20.136719 87.152344 24.71875 C 90.449219 19.34375 95.328125 15.105469 100.683594 11.859375 C 106.265625 8.5 112.453125 6.1875 118.828125 4.855469 C 120.992188 4.296875 123.234375 4.113281 125.378906 3.492188 C 111.683594 3.980469 97.96875 5.59375 84.683594 9.042969 C 78.078125 10.804688 71.675781 13.550781 66.179688 17.660156 C 62.367188 20.480469 59.027344 23.996094 56.671875 28.128906 C 56.375 28.558594 56.15625 29.140625 55.597656 29.289062 C 53.46875 29.960938 51.191406 30.347656 49.238281 31.480469 C 47.78125 32.324219 46.785156 33.738281 46.027344 35.203125 C 55.683594 33.921875 65.421875 33.460938 75.148438 33.007812 C 78.042969 32.832031 80.941406 33.121094 83.828125 33.269531 C 83.636719 33.53125 83.4375 33.792969 83.234375 34.054688 C 71.660156 34.671875 60.089844 35.605469 48.546875 36.660156 C 46.847656 41.503906 45.066406 46.328125 43.445312 51.203125 C 43.234375 51.851562 43.007812 52.503906 42.660156 53.089844 C 42.484375 50.402344 42.441406 47.707031 42.101562 45.027344 C 41.996094 44.339844 41.789062 43.414062 40.976562 43.28125 C 39.617188 43.066406 37.652344 43.542969 37.503906 45.191406 C 37.171875 48.195312 37.113281 51.210938 37.09375 54.222656 C 27.820312 55.933594 18.527344 57.824219 9.675781 61.125 C 8.410156 61.636719 7.039062 62.082031 6.054688 63.078125 C 4.867188 64.429688 4.816406 66.324219 4.648438 68.015625 C 4.328125 72.769531 4.136719 77.53125 3.988281 82.296875 C 3.761719 85.140625 4.152344 88.011719 3.769531 90.84375 C 2.878906 90.90625 1.980469 90.890625 1.074219 90.878906 C 0.949219 91.726562 0.878906 92.582031 0.863281 93.4375 C 1.097656 93.65625 1.316406 93.871094 1.542969 94.089844 C 1.082031 94.1875 0.609375 94.28125 0.140625 94.378906 C -0.167969 97.273438 0.0859375 100.207031 0.4375 103.09375 C 0.75 105.457031 1.324219 108.242188 3.53125 109.574219 C 5.667969 110.632812 8.140625 110.402344 10.433594 110.71875 C 12.152344 114.015625 15.003906 116.753906 18.527344 118.019531 C 21.050781 119.101562 23.839844 118.796875 26.511719 118.902344 C 31.507812 119.015625 36.378906 116.101562 38.828125 111.78125 C 44.734375 111.878906 50.640625 112 56.546875 111.976562 C 58.476562 115.1875 61.589844 117.699219 65.160156 118.832031 C 67.582031 119.644531 70.183594 119.371094 72.6875 119.496094 C 76.882812 119.738281 81.0625 117.820312 83.820312 114.6875 C 90.03125 107.699219 90.308594 95.921875 83.808594 89.023438 C 80.976562 85.804688 76.648438 83.953125 72.355469 84.257812 C 68.160156 84.207031 64.363281 86.570312 61.640625 89.605469 C 63.570312 86.292969 66.589844 83.527344 70.296875 82.367188 C 74.839844 80.867188 80.101562 82.007812 83.679688 85.167969 C 87.8125 88.640625 89.996094 93.960938 90.421875 99.257812 C 90.929688 103.546875 90.292969 108.023438 88.382812 111.921875 C 107.6875 111.90625 126.992188 111.785156 146.300781 111.792969 C 147.722656 114.636719 150.128906 117.027344 153.148438 118.117188 C 156.253906 119.296875 159.621094 118.605469 162.839844 118.964844 C 167.882812 119.390625 172.855469 116.355469 175.132812 111.90625 C 176.058594 111.933594 176.972656 111.925781 177.898438 111.933594 C 179.625 115.519531 183 118.464844 187.039062 118.972656 C 190.148438 119.296875 193.277344 119.035156 196.394531 119.269531 C 200.265625 119.15625 203.957031 117.027344 206.164062 113.871094 C 210.421875 107.78125 210.210938 98.757812 205.265625 93.113281 C 203.003906 90.496094 199.628906 88.753906 196.121094 88.839844 C 195.25 88.882812 194.1875 88.734375 193.765625 87.847656 C 193.480469 87.234375 194.273438 87.113281 194.683594 87.070312 C 196.898438 86.878906 199.125 87.199219 201.347656 87.078125 C 199.472656 85.011719 196.550781 84.523438 193.914062 84.179688 C 186.175781 83.308594 178.378906 83.429688 170.605469 83.429688 C 170.597656 83.980469 170.597656 84.539062 170.585938 85.097656 C 172.148438 85.917969 174.050781 86.03125 175.453125 87.164062 C 174.949219 87.671875 174.398438 88.28125 173.613281 88.265625 C 171.179688 88.351562 168.738281 88.203125 166.292969 88.167969 C 166.625 88.5 166.957031 88.839844 167.28125 89.179688 C 160.605469 89.121094 153.933594 89.15625 147.25 89.164062 C 147.277344 87.992188 147.269531 86.824219 147.285156 85.65625 C 149.109375 85.671875 150.921875 85.707031 152.738281 85.59375 C 153.539062 85.535156 154.5625 85.105469 154.605469 84.171875 C 154.683594 81.941406 154.605469 79.6875 154.648438 77.445312 C 162.414062 77.210938 170.175781 76.96875 177.941406 76.808594 C 186.246094 76.433594 194.570312 76.320312 202.882812 76.042969 C 213.988281 75.640625 225.109375 75.414062 236.226562 75.046875 C 235.273438 74.875 234.316406 74.847656 233.355469 74.820312 C 217.347656 74.148438 201.339844 73.355469 185.328125 72.648438 C 175.085938 72.101562 164.84375 71.628906 154.613281 71.175781 C 154.664062 69.367188 154.558594 67.5625 154.648438 65.757812 C 151.054688 65.3125 147.40625 65.285156 143.792969 64.988281 C 135.585938 64.457031 127.367188 64.082031 119.148438 63.742188 C 118.3125 63.699219 117.464844 63.734375 116.628906 63.734375 C 118.785156 63.375 120.972656 63.507812 123.144531 63.417969 C 129.207031 63.242188 135.269531 63.085938 141.335938 62.824219 C 158.886719 62.300781 176.449219 62.066406 194.007812 61.515625 C 186 60.652344 177.976562 59.972656 169.964844 59.136719 C 164.878906 58.75 159.820312 58.027344 154.726562 57.703125 C 154.65625 49.601562 154.59375 41.488281 154.316406 33.390625 C 153.984375 25.878906 153.589844 18.351562 152.414062 10.917969 C 151.960938 8.117188 151.429688 5.316406 150.574219 2.601562 C 150.355469 2.070312 150.214844 1.292969 149.527344 1.214844 M 104.074219 29.515625 C 113.042969 29.4375 121.941406 30.695312 130.847656 31.488281 C 132.148438 31.628906 133.484375 31.636719 134.730469 32.027344 C 128.011719 31.933594 121.277344 31.574219 114.5625 31.777344 C 113.792969 31.734375 113.050781 32.222656 113.175781 33.050781 C 112.703125 45.980469 112.539062 58.90625 112.160156 71.84375 C 112.179688 76.128906 111.832031 80.414062 111.933594 84.695312 C 111.742188 84.554688 111.628906 84.371094 111.585938 84.144531 C 111.785156 81.800781 111.550781 79.433594 111.558594 77.089844 C 111.324219 70.710938 111.089844 64.34375 110.898438 57.964844 C 110.503906 49.886719 110.433594 41.792969 109.988281 33.714844 C 110.015625 32.605469 109.082031 31.855469 108.054688 31.722656 C 102.976562 30.789062 97.820312 30.441406 92.691406 29.960938 C 90.9375 29.777344 89.164062 29.820312 87.421875 29.5 C 92.976562 29.492188 98.527344 29.445312 104.074219 29.515625 M 78.75 29.910156 C 78.136719 30.640625 77.597656 31.425781 77.101562 32.238281 C 76.480469 32.257812 75.859375 32.257812 75.234375 32.246094 C 75.679688 31.574219 76.054688 30.816406 76.699219 30.320312 C 77.335938 29.996094 78.066406 30.023438 78.75 29.910156 M 64.554688 30.78125 C 63.882812 31.359375 63.535156 32.1875 63.011719 32.875 C 62.445312 33.015625 61.851562 32.988281 61.265625 33.007812 C 61.570312 32.175781 62.09375 31.390625 62.851562 30.929688 C 63.410156 30.800781 63.988281 30.824219 64.554688 30.78125 M 59.425781 31.21875 C 58.867188 31.8125 58.4375 32.5 58.003906 33.179688 C 57.550781 33.609375 56.859375 33.382812 56.3125 33.425781 C 56.597656 32.648438 57.015625 31.847656 57.742188 31.402344 C 58.28125 31.242188 58.867188 31.269531 59.425781 31.21875 M 48.695312 34 C 48.425781 34.410156 47.824219 34.148438 47.414062 34.21875 C 47.761719 32.960938 48.871094 32.046875 50.1875 32.019531 C 49.628906 32.628906 49.15625 33.3125 48.695312 34 M 98.847656 35.964844 C 100.585938 36.070312 102.320312 36.085938 104.039062 36.320312 C 105.234375 36.523438 106.027344 37.753906 105.992188 38.914062 C 105.96875 43.117188 105.984375 47.332031 105.976562 51.527344 C 105.984375 52.574219 105.113281 53.542969 104.046875 53.535156 C 101.519531 53.613281 98.980469 53.34375 96.449219 53.507812 C 95.742188 54.757812 96.300781 56.371094 95.648438 57.671875 C 95.261719 58.507812 94.433594 58.996094 93.605469 59.292969 C 94.398438 58.550781 95.0625 57.589844 95.003906 56.457031 C 95.003906 51.738281 94.992188 47.027344 94.855469 42.316406 C 94.898438 41.304688 94.347656 40.203125 93.273438 40.03125 C 91.773438 39.847656 90.144531 39.828125 88.730469 40.449219 C 87.890625 40.804688 87.683594 41.800781 87.648438 42.621094 C 87.5 45.597656 87.492188 48.578125 87.492188 51.5625 C 85.703125 52.113281 83.941406 52.765625 82.203125 53.472656 C 83.292969 48.238281 84.796875 43.09375 86.183594 37.917969 C 86.453125 36.582031 87.550781 35.34375 89 35.386719 C 92.289062 35.484375 95.570312 35.761719 98.847656 35.964844 M 81.828125 37.917969 C 80.894531 41.171875 80.007812 44.425781 79.027344 47.664062 C 78.644531 48.972656 78.332031 50.5 77.125 51.335938 C 75.382812 52.558594 73.140625 52 71.152344 52.058594 C 61.957031 51.476562 52.691406 51.578125 43.574219 52.976562 C 44.855469 48.9375 46.289062 44.949219 47.578125 40.917969 C 59 39.871094 70.410156 38.902344 81.828125 37.917969 M 87.5 53.132812 C 87.507812 54.1875 87.523438 55.242188 87.578125 56.300781 C 86.007812 56.308594 84.429688 56.421875 82.859375 56.316406 C 82.351562 56.289062 82.039062 56.019531 81.925781 55.503906 C 83.773438 54.695312 85.625 53.882812 87.5 53.132812 M 20.203125 61.324219 C 22.390625 61.65625 24.644531 61.699219 26.773438 62.335938 C 28.082031 62.710938 28.691406 64.132812 28.59375 65.398438 C 28.394531 73.292969 27.941406 81.171875 27.792969 89.066406 C 27.835938 91.003906 26.570312 93.070312 24.53125 93.304688 C 20.175781 93.402344 15.816406 93.316406 11.453125 93.359375 C 10.125 93.394531 8.800781 93.53125 7.472656 93.359375 C 6.253906 93.253906 5.1875 92.1875 5.082031 90.96875 C 4.761719 88.078125 5.03125 85.175781 5.050781 82.277344 C 5.109375 77.59375 5.308594 72.910156 5.582031 68.234375 C 5.746094 66.8125 5.675781 65.152344 6.757812 64.0625 C 7.894531 63.113281 9.417969 62.875 10.789062 62.449219 C 13.867188 61.714844 17.007812 60.6875 20.203125 61.324219 M 76.0625 72.898438 C 77.082031 73.171875 77.066406 74.488281 77.464844 75.289062 C 72.527344 73.003906 66.945312 72.648438 61.597656 73.074219 C 57.585938 73.371094 53.625 74.226562 49.769531 75.351562 C 44.515625 77.007812 39.359375 79.171875 34.804688 82.304688 C 36.273438 80.734375 38.183594 79.695312 39.960938 78.527344 C 45.109375 75.507812 50.769531 73.320312 56.640625 72.21875 C 63.046875 71 69.78125 71.007812 76.0625 72.898438 M 84.148438 77.90625 C 88.230469 81.972656 90.777344 87.425781 91.660156 93.085938 C 90.890625 90.609375 90.070312 88.113281 88.753906 85.855469 C 86.574219 82.058594 83.609375 78.578125 79.75 76.425781 C 79.542969 75.59375 79.238281 74.800781 78.949219 74 C 80.945312 74.90625 82.578125 76.425781 84.148438 77.90625 M 105.304688 74.90625 C 105.984375 75.4375 105.984375 76.511719 105.742188 77.261719 C 105.15625 78.0625 103.980469 77.652344 103.132812 77.757812 C 102.128906 77.636719 100.882812 78.019531 100.054688 77.347656 C 99.964844 76.539062 99.722656 75.507812 100.359375 74.871094 C 102 74.75 103.664062 74.742188 105.304688 74.90625 M 50.316406 83.535156 C 50.238281 85.070312 49.644531 86.535156 49.0625 87.941406 C 48.667969 88.707031 48.285156 89.648438 47.386719 89.929688 C 46.226562 90.304688 44.996094 90.425781 43.773438 90.488281 C 44.324219 87.015625 46.355469 83.492188 49.707031 82.09375 C 49.996094 82.53125 50.394531 82.96875 50.316406 83.535156 M 47.132812 82.425781 C 44.804688 84.597656 42.972656 87.347656 42.328125 90.503906 C 38.808594 90.566406 35.292969 90.757812 31.789062 90.75 C 32.09375 89.449219 32.695312 88.21875 33.539062 87.179688 C 34.824219 85.601562 36.839844 84.929688 38.695312 84.300781 C 41.453125 83.457031 44.269531 82.792969 47.132812 82.425781 M 117.804688 90.765625 C 118.84375 91.28125 119.953125 91.769531 120.796875 92.574219 C 112.351562 92.597656 103.90625 92.511719 95.464844 92.566406 C 94.90625 91.917969 94.320312 91.300781 93.710938 90.714844 C 101.746094 90.820312 109.777344 90.6875 117.804688 90.765625 M 76.304688 92.222656 C 77.746094 92.667969 79.0625 93.496094 80.023438 94.667969 C 83.378906 98.636719 83.328125 104.996094 80.046875 109 C 78.503906 110.839844 76.050781 111.992188 73.625 111.703125 C 71.234375 111.417969 69.089844 109.882812 67.886719 107.820312 C 65.304688 103.546875 65.730469 97.371094 69.464844 93.898438 C 71.269531 92.25 73.941406 91.5 76.304688 92.222656 M 60.140625 92.066406 C 59.859375 92.652344 59.597656 93.253906 59.371094 93.863281 C 51.378906 93.8125 43.398438 93.445312 35.40625 93.585938 C 36.628906 93.296875 37.882812 93.246094 39.121094 93.132812 C 46.101562 92.378906 53.117188 91.980469 60.136719 92.066406 M 198.996094 95.476562 C 201.597656 96.203125 203.378906 98.628906 204.039062 101.148438 C 204.703125 103.921875 204.414062 106.984375 202.921875 109.445312 C 201.851562 111.179688 200.054688 112.613281 197.960938 112.726562 C 195.707031 112.910156 193.554688 111.609375 192.324219 109.785156 C 189.898438 106.164062 190.027344 100.914062 192.820312 97.519531 C 194.261719 95.730469 196.773438 94.832031 198.996094 95.480469 M 124.050781 107.746094 C 115.429688 108.066406 106.800781 107.824219 98.175781 107.925781 C 97.554688 107.238281 96.902344 106.59375 96.21875 105.964844 C 104.289062 105.980469 112.367188 105.957031 120.445312 105.957031 C 121.703125 106.417969 122.800781 107.246094 124.050781 107.746094 Z M 124.050781 107.746094 " fill-opacity="1" fill-rule="nonzero"/></g><path fill="#ffffff" d="M 26.390625 65.597656 C 25.335938 65.617188 24.269531 65.644531 23.207031 65.617188 C 22.917969 69.011719 23.117188 72.429688 22.996094 75.839844 C 22.960938 80.902344 22.867188 85.96875 22.902344 91.03125 C 23.871094 90.933594 25.109375 90.96875 25.640625 89.984375 C 26.085938 88.804688 25.945312 87.523438 26.023438 86.292969 C 26.261719 80.449219 26.476562 74.613281 26.601562 68.757812 C 26.609375 67.703125 26.730469 66.621094 26.390625 65.597656 Z M 26.390625 65.597656 " fill-opacity="1" fill-rule="nonzero"/><path fill="#ffffff" d="M 21.347656 65.746094 C 20.144531 65.792969 18.949219 65.828125 17.753906 65.816406 C 17.726562 74.21875 17.542969 82.628906 17.492188 91.03125 C 18.667969 91.003906 19.847656 90.996094 21.023438 91.003906 C 21.085938 82.585938 21.164062 74.15625 21.347656 65.746094 Z M 21.347656 65.746094 " fill-opacity="1" fill-rule="nonzero"/><path fill="#ffffff" d="M 15.957031 65.886719 C 14.789062 65.964844 13.617188 66.070312 12.441406 66.0625 C 12.238281 74.382812 12.285156 82.722656 12.1875 91.054688 C 13.339844 91.046875 14.492188 91.03125 15.640625 91.019531 C 15.738281 82.644531 15.867188 74.261719 15.957031 65.886719 Z M 15.957031 65.886719 " fill-opacity="1" fill-rule="nonzero"/><path fill="#ffffff" d="M 10.625 66.15625 C 9.542969 66.21875 8.445312 66.261719 7.390625 66.550781 C 6.882812 70.652344 7.039062 74.785156 6.769531 78.902344 C 6.683594 82.296875 6.621094 85.691406 6.664062 89.082031 C 6.65625 89.773438 6.832031 90.539062 7.441406 90.941406 C 8.410156 91.132812 9.414062 91.039062 10.398438 91.082031 C 10.417969 82.765625 10.597656 74.460938 10.625 66.15625 Z M 10.625 66.15625 " fill-opacity="1" fill-rule="nonzero"/><g clip-path="url(#4065537691)"><path fill="#ffffff" d="M 233.269531 92.84375 C 231.167969 90.558594 228.132812 89.1875 225.027344 89.144531 C 222.058594 89.09375 219.085938 89.128906 216.121094 89.152344 C 214.84375 89.101562 213.675781 89.71875 212.421875 89.753906 C 209.417969 89.617188 206.410156 89.808594 203.398438 89.738281 C 207.140625 92.164062 209.464844 96.359375 210.082031 100.722656 C 210.859375 105.015625 209.847656 109.550781 207.621094 113.265625 C 209.53125 116.023438 212.375 118.316406 215.769531 118.804688 C 218.648438 119.121094 221.539062 118.875 224.417969 119.03125 C 227.773438 119.207031 231.117188 117.734375 233.382812 115.289062 C 238.855469 109.175781 238.878906 98.871094 233.269531 92.84375 M 227.933594 95.765625 C 230.050781 96.621094 231.613281 98.585938 232.25 100.746094 C 233.148438 103.679688 232.851562 107.027344 231.175781 109.621094 C 230.09375 111.292969 228.316406 112.664062 226.257812 112.734375 C 224.09375 112.875 222.035156 111.617188 220.832031 109.863281 C 218.316406 106.277344 218.5 101.035156 221.230469 97.613281 C 222.792969 95.6875 225.59375 94.761719 227.933594 95.765625 Z M 227.933594 95.765625 " fill-opacity="1" fill-rule="nonzero"/></g><g clip-path="url(#5e49c2b676)"><path fill="#ffffff" d="M 208.992188 8.753906 C 193.460938 5.988281 177.941406 3.152344 162.40625 0.441406 C 162.449219 5.789062 162.40625 11.144531 162.527344 16.484375 C 163.410156 13.019531 164.167969 9.519531 164.996094 6.03125 C 179.976562 7.679688 194.921875 9.554688 209.898438 11.160156 C 219.546875 12.367188 229.230469 13.289062 238.871094 14.539062 C 240.128906 14.710938 241.394531 14.78125 242.65625 14.789062 C 231.414062 12.914062 220.210938 10.75 208.992188 8.753906 Z M 208.992188 8.753906 " fill-opacity="1" fill-rule="nonzero"/></g><path fill="#ffffff" d="M 240.046875 95.136719 C 238.820312 95.15625 237.589844 95.164062 236.359375 95.128906 C 238.363281 98.585938 238.820312 102.753906 238.179688 106.652344 C 237.683594 110.089844 236.070312 113.363281 233.582031 115.796875 C 236.097656 115.8125 238.617188 115.769531 241.128906 115.824219 C 240.484375 111.398438 239.996094 106.949219 239.332031 102.527344 C 239.761719 102.125 239.621094 101.515625 239.683594 100.992188 C 239.890625 100.644531 240.011719 100.257812 239.996094 99.847656 C 240.046875 98.277344 239.996094 96.699219 240.046875 95.136719 Z M 240.046875 95.136719 " fill-opacity="1" fill-rule="nonzero"/></g></g></g><g clip-path="url(#780ac8ca56)"><g transform="matrix(1, 0, 0, 1, -0, 4)"><g clip-path="url(#aa2cf71d02)"><g clip-path="url(#2adbc767b2)"><path fill="#fd5368" d="M 144.074219 1.539062 C 138.398438 0.117188 132.355469 -0.0078125 126.679688 1.453125 C 124.890625 1.90625 123.09375 2.304688 121.34375 2.898438 C 124.363281 2.867188 127.394531 2.984375 130.371094 3.511719 C 131.144531 3.671875 131.992188 3.671875 132.664062 4.117188 C 120.578125 4.4375 108.398438 7.203125 97.816406 13.171875 C 92.695312 16.148438 87.929688 19.769531 83.972656 24.183594 C 87.148438 19.003906 91.847656 14.917969 97.007812 11.792969 C 102.386719 8.558594 108.347656 6.328125 114.492188 5.042969 C 116.578125 4.503906 118.738281 4.328125 120.804688 3.730469 C 107.609375 4.203125 94.394531 5.757812 81.59375 9.078125 C 75.230469 10.777344 69.058594 13.421875 63.765625 17.382812 C 60.089844 20.097656 56.871094 23.484375 54.601562 27.46875 C 54.316406 27.882812 54.105469 28.445312 53.566406 28.585938 C 51.515625 29.234375 49.324219 29.605469 47.441406 30.695312 C 46.035156 31.511719 45.078125 32.875 44.347656 34.285156 C 53.652344 33.050781 63.03125 32.605469 72.40625 32.167969 C 75.195312 32 77.988281 32.277344 80.769531 32.421875 C 80.585938 32.671875 80.390625 32.925781 80.199219 33.175781 C 69.042969 33.773438 57.898438 34.671875 46.777344 35.691406 C 45.136719 40.355469 43.421875 45.003906 41.859375 49.703125 C 41.65625 50.324219 41.4375 50.953125 41.101562 51.515625 C 40.933594 48.929688 40.894531 46.332031 40.566406 43.75 C 40.464844 43.085938 40.261719 42.195312 39.480469 42.070312 C 38.167969 41.859375 36.277344 42.320312 36.136719 43.910156 C 35.816406 46.800781 35.757812 49.710938 35.742188 52.609375 C 26.804688 54.257812 17.851562 56.082031 9.320312 59.257812 C 8.101562 59.753906 6.78125 60.183594 5.832031 61.140625 C 4.691406 62.445312 4.640625 64.269531 4.480469 65.898438 C 4.167969 70.480469 3.984375 75.070312 3.839844 79.660156 C 3.621094 82.398438 4 85.164062 3.632812 87.894531 C 2.773438 87.957031 1.90625 87.9375 1.035156 87.929688 C 0.914062 88.746094 0.847656 89.570312 0.832031 90.394531 C 1.058594 90.601562 1.269531 90.8125 1.488281 91.023438 C 1.042969 91.117188 0.585938 91.207031 0.132812 91.300781 C -0.160156 94.089844 0.0820312 96.914062 0.417969 99.699219 C 0.722656 101.976562 1.277344 104.65625 3.402344 105.941406 C 5.464844 106.960938 7.839844 106.742188 10.050781 107.042969 C 11.707031 110.222656 14.457031 112.859375 17.851562 114.078125 C 20.28125 115.121094 22.972656 114.828125 25.542969 114.929688 C 30.359375 115.039062 35.050781 112.230469 37.414062 108.070312 C 43.101562 108.164062 48.792969 108.28125 54.484375 108.253906 C 56.34375 111.347656 59.34375 113.769531 62.78125 114.863281 C 65.117188 115.644531 67.621094 115.382812 70.035156 115.5 C 74.078125 115.734375 78.105469 113.886719 80.761719 110.871094 C 86.746094 104.136719 87.015625 92.789062 80.75 86.140625 C 78.019531 83.039062 73.851562 81.257812 69.714844 81.550781 C 65.671875 81.5 62.015625 83.777344 59.394531 86.703125 C 61.25 83.507812 64.160156 80.84375 67.730469 79.726562 C 72.109375 78.28125 77.179688 79.382812 80.625 82.425781 C 84.609375 85.769531 86.710938 90.898438 87.121094 96 C 87.609375 100.136719 86.996094 104.449219 85.15625 108.207031 C 103.757812 108.1875 122.359375 108.070312 140.960938 108.078125 C 142.332031 110.820312 144.652344 113.121094 147.558594 114.171875 C 150.550781 115.308594 153.796875 114.644531 156.898438 114.988281 C 161.757812 115.402344 166.546875 112.476562 168.742188 108.1875 C 169.632812 108.214844 170.515625 108.207031 171.40625 108.214844 C 173.070312 111.667969 176.324219 114.507812 180.214844 114.996094 C 183.207031 115.308594 186.226562 115.054688 189.226562 115.285156 C 192.957031 115.175781 196.515625 113.121094 198.640625 110.082031 C 202.742188 104.214844 202.539062 95.523438 197.773438 90.082031 C 195.597656 87.5625 192.34375 85.878906 188.964844 85.964844 C 188.125 86.007812 187.097656 85.863281 186.695312 85.007812 C 186.417969 84.417969 187.183594 84.300781 187.578125 84.257812 C 189.714844 84.074219 191.855469 84.382812 194 84.265625 C 192.191406 82.273438 189.378906 81.804688 186.839844 81.476562 C 179.382812 80.636719 171.867188 80.753906 164.378906 80.753906 C 164.371094 81.28125 164.371094 81.820312 164.363281 82.359375 C 165.867188 83.148438 167.699219 83.257812 169.050781 84.351562 C 168.566406 84.835938 168.035156 85.425781 167.277344 85.410156 C 164.933594 85.492188 162.578125 85.351562 160.226562 85.316406 C 160.546875 85.636719 160.863281 85.964844 161.175781 86.292969 C 154.746094 86.234375 148.316406 86.265625 141.875 86.277344 C 141.902344 85.148438 141.894531 84.023438 141.910156 82.898438 C 143.667969 82.914062 145.414062 82.945312 147.164062 82.835938 C 147.9375 82.777344 148.921875 82.367188 148.960938 81.46875 C 149.039062 79.316406 148.960938 77.148438 149.003906 74.988281 C 156.484375 74.757812 163.964844 74.523438 171.449219 74.375 C 179.449219 74.011719 187.46875 73.902344 195.480469 73.632812 C 206.179688 73.246094 216.898438 73.027344 227.605469 72.675781 C 226.6875 72.507812 225.765625 72.480469 224.839844 72.457031 C 209.414062 71.808594 193.992188 71.042969 178.566406 70.363281 C 168.699219 69.835938 158.828125 69.378906 148.96875 68.945312 C 149.019531 67.203125 148.921875 65.464844 149.003906 63.722656 C 145.542969 63.292969 142.027344 63.269531 138.546875 62.984375 C 130.636719 62.46875 122.71875 62.109375 114.800781 61.78125 C 113.996094 61.738281 113.179688 61.773438 112.371094 61.773438 C 114.449219 61.429688 116.558594 61.554688 118.652344 61.46875 C 124.492188 61.300781 130.335938 61.152344 136.175781 60.898438 C 153.089844 60.394531 170.007812 60.167969 186.929688 59.636719 C 179.214844 58.804688 171.480469 58.148438 163.765625 57.34375 C 158.863281 56.972656 153.988281 56.277344 149.078125 55.964844 C 149.011719 48.15625 148.953125 40.339844 148.683594 32.539062 C 148.363281 25.300781 147.988281 18.046875 146.851562 10.886719 C 146.414062 8.1875 145.902344 5.488281 145.078125 2.875 C 144.867188 2.363281 144.734375 1.613281 144.070312 1.539062 M 100.277344 28.804688 C 108.917969 28.730469 117.492188 29.941406 126.074219 30.707031 C 127.324219 30.839844 128.613281 30.847656 129.8125 31.226562 C 123.339844 31.132812 116.851562 30.789062 110.378906 30.984375 C 109.640625 30.941406 108.925781 31.410156 109.042969 32.210938 C 108.589844 44.667969 108.429688 57.125 108.070312 69.589844 C 108.085938 73.71875 107.75 77.84375 107.851562 81.972656 C 107.664062 81.835938 107.554688 81.660156 107.515625 81.441406 C 107.707031 79.179688 107.480469 76.902344 107.488281 74.640625 C 107.261719 68.496094 107.035156 62.359375 106.851562 56.214844 C 106.472656 48.433594 106.40625 40.632812 105.976562 32.847656 C 106 31.78125 105.101562 31.058594 104.109375 30.933594 C 99.21875 30.03125 94.25 29.695312 89.308594 29.234375 C 87.617188 29.058594 85.910156 29.101562 84.230469 28.789062 C 89.585938 28.78125 94.929688 28.738281 100.277344 28.804688 M 75.875 29.183594 C 75.285156 29.890625 74.765625 30.644531 74.285156 31.429688 C 73.6875 31.445312 73.09375 31.445312 72.488281 31.4375 C 72.917969 30.789062 73.277344 30.058594 73.898438 29.578125 C 74.511719 29.269531 75.21875 29.292969 75.875 29.183594 M 62.199219 30.023438 C 61.550781 30.578125 61.214844 31.378906 60.710938 32.042969 C 60.164062 32.175781 59.59375 32.152344 59.03125 32.167969 C 59.324219 31.371094 59.828125 30.613281 60.558594 30.167969 C 61.097656 30.042969 61.652344 30.066406 62.199219 30.023438 M 57.257812 30.445312 C 56.71875 31.015625 56.304688 31.679688 55.886719 32.335938 C 55.449219 32.746094 54.785156 32.527344 54.257812 32.570312 C 54.53125 31.824219 54.9375 31.050781 55.632812 30.621094 C 56.15625 30.46875 56.71875 30.496094 57.257812 30.445312 M 46.917969 33.125 C 46.65625 33.519531 46.078125 33.269531 45.683594 33.335938 C 46.019531 32.125 47.085938 31.242188 48.355469 31.21875 C 47.816406 31.804688 47.363281 32.460938 46.917969 33.125 M 95.242188 35.015625 C 96.914062 35.117188 98.585938 35.136719 100.242188 35.363281 C 101.394531 35.554688 102.160156 36.742188 102.125 37.859375 C 102.101562 41.910156 102.117188 45.96875 102.109375 50.011719 C 102.117188 51.023438 101.277344 51.957031 100.25 51.945312 C 97.8125 52.023438 95.367188 51.761719 92.929688 51.921875 C 92.25 53.125 92.789062 54.679688 92.15625 55.929688 C 91.785156 56.738281 90.988281 57.210938 90.191406 57.496094 C 90.957031 56.78125 91.59375 55.855469 91.535156 54.761719 C 91.535156 50.214844 91.527344 45.675781 91.390625 41.136719 C 91.433594 40.164062 90.90625 39.101562 89.871094 38.933594 C 88.425781 38.757812 86.851562 38.742188 85.492188 39.339844 C 84.683594 39.683594 84.484375 40.640625 84.449219 41.429688 C 84.304688 44.296875 84.296875 47.171875 84.296875 50.046875 C 82.574219 50.578125 80.878906 51.207031 79.203125 51.886719 C 80.253906 46.84375 81.699219 41.886719 83.039062 36.902344 C 83.296875 35.613281 84.355469 34.421875 85.753906 34.464844 C 88.921875 34.554688 92.082031 34.824219 95.242188 35.019531 M 78.84375 36.902344 C 77.945312 40.035156 77.085938 43.171875 76.144531 46.289062 C 75.773438 47.550781 75.472656 49.023438 74.3125 49.828125 C 72.632812 51.003906 70.472656 50.46875 68.554688 50.527344 C 59.695312 49.960938 50.769531 50.0625 41.984375 51.410156 C 43.21875 47.515625 44.597656 43.675781 45.84375 39.792969 C 56.84375 38.785156 67.839844 37.851562 78.84375 36.898438 M 84.304688 51.558594 C 84.3125 52.578125 84.332031 53.59375 84.382812 54.609375 C 82.867188 54.617188 81.347656 54.726562 79.835938 54.628906 C 79.347656 54.601562 79.042969 54.339844 78.933594 53.84375 C 80.71875 53.0625 82.5 52.28125 84.304688 51.558594 M 19.464844 59.453125 C 21.574219 59.769531 23.742188 59.8125 25.796875 60.425781 C 27.054688 60.789062 27.644531 62.160156 27.550781 63.378906 C 27.359375 70.984375 26.921875 78.574219 26.777344 86.183594 C 26.820312 88.046875 25.601562 90.039062 23.632812 90.265625 C 19.441406 90.359375 15.238281 90.277344 11.035156 90.316406 C 9.757812 90.351562 8.480469 90.484375 7.203125 90.316406 C 6.023438 90.214844 5 89.191406 4.898438 88.015625 C 4.585938 85.230469 4.847656 82.433594 4.863281 79.640625 C 4.921875 75.128906 5.117188 70.613281 5.378906 66.109375 C 5.539062 64.738281 5.46875 63.140625 6.511719 62.089844 C 7.605469 61.175781 9.074219 60.949219 10.394531 60.535156 C 13.363281 59.828125 16.386719 58.839844 19.464844 59.453125 M 73.285156 70.605469 C 74.269531 70.867188 74.253906 72.136719 74.640625 72.910156 C 69.882812 70.707031 64.5 70.363281 59.347656 70.773438 C 55.484375 71.058594 51.667969 71.882812 47.953125 72.96875 C 42.890625 74.566406 37.921875 76.648438 33.535156 79.667969 C 34.949219 78.152344 36.789062 77.152344 38.503906 76.027344 C 43.460938 73.117188 48.917969 71.007812 54.574219 69.949219 C 60.746094 68.773438 67.234375 68.78125 73.285156 70.605469 M 81.078125 75.429688 C 85.011719 79.347656 87.464844 84.601562 88.316406 90.054688 C 87.574219 87.667969 86.785156 85.265625 85.515625 83.085938 C 83.414062 79.429688 80.558594 76.078125 76.839844 74 C 76.640625 73.203125 76.34375 72.4375 76.070312 71.664062 C 77.992188 72.539062 79.566406 74 81.078125 75.429688 M 101.460938 72.539062 C 102.117188 73.050781 102.117188 74.085938 101.882812 74.808594 C 101.320312 75.582031 100.183594 75.1875 99.367188 75.289062 C 98.402344 75.167969 97.199219 75.539062 96.402344 74.890625 C 96.316406 74.109375 96.082031 73.117188 96.695312 72.503906 C 98.277344 72.386719 99.882812 72.378906 101.460938 72.539062 M 48.480469 80.851562 C 48.40625 82.332031 47.835938 83.742188 47.269531 85.097656 C 46.894531 85.835938 46.523438 86.746094 45.65625 87.011719 C 44.539062 87.375 43.355469 87.492188 42.175781 87.550781 C 42.707031 84.207031 44.664062 80.808594 47.894531 79.464844 C 48.167969 79.886719 48.558594 80.304688 48.480469 80.851562 M 45.414062 79.785156 C 43.167969 81.878906 41.402344 84.527344 40.78125 87.570312 C 37.394531 87.628906 34.007812 87.8125 30.628906 87.804688 C 30.921875 86.550781 31.5 85.367188 32.316406 84.367188 C 33.550781 82.84375 35.496094 82.199219 37.285156 81.59375 C 39.941406 80.777344 42.65625 80.136719 45.414062 79.785156 M 113.507812 87.820312 C 114.507812 88.316406 115.574219 88.789062 116.390625 89.5625 C 108.253906 89.585938 100.117188 89.503906 91.980469 89.554688 C 91.441406 88.929688 90.878906 88.332031 90.289062 87.769531 C 98.03125 87.871094 105.773438 87.746094 113.507812 87.820312 M 73.519531 89.222656 C 74.90625 89.652344 76.175781 90.453125 77.101562 91.578125 C 80.335938 95.402344 80.289062 101.53125 77.125 105.386719 C 75.640625 107.160156 73.277344 108.269531 70.941406 107.996094 C 68.636719 107.71875 66.570312 106.238281 65.410156 104.253906 C 62.921875 100.132812 63.332031 94.183594 66.929688 90.839844 C 68.671875 89.25 71.242188 88.527344 73.519531 89.222656 M 57.945312 89.074219 C 57.675781 89.636719 57.421875 90.214844 57.203125 90.804688 C 49.503906 90.753906 41.8125 90.402344 34.113281 90.535156 C 35.289062 90.257812 36.5 90.207031 37.695312 90.097656 C 44.417969 89.375 51.175781 88.988281 57.945312 89.074219 M 191.734375 92.359375 C 194.242188 93.058594 195.957031 95.394531 196.59375 97.824219 C 197.234375 100.496094 196.957031 103.445312 195.519531 105.816406 C 194.484375 107.488281 192.753906 108.867188 190.734375 108.976562 C 188.566406 109.15625 186.492188 107.902344 185.304688 106.144531 C 182.96875 102.65625 183.09375 97.597656 185.785156 94.328125 C 187.171875 92.605469 189.59375 91.738281 191.734375 92.359375 M 119.523438 104.179688 C 111.21875 104.488281 102.90625 104.253906 94.589844 104.355469 C 93.996094 103.691406 93.363281 103.070312 92.710938 102.464844 C 100.484375 102.480469 108.269531 102.457031 116.050781 102.457031 C 117.261719 102.902344 118.320312 103.699219 119.523438 104.179688 Z M 119.523438 104.179688 " fill-opacity="1" fill-rule="nonzero"/></g><path fill="#fd5368" d="M 25.425781 63.570312 C 24.410156 63.589844 23.382812 63.613281 22.359375 63.589844 C 22.082031 66.859375 22.273438 70.152344 22.15625 73.441406 C 22.125 78.316406 22.03125 83.199219 22.066406 88.074219 C 23 87.980469 24.191406 88.015625 24.703125 87.066406 C 25.132812 85.929688 25 84.695312 25.074219 83.511719 C 25.300781 77.878906 25.511719 72.253906 25.628906 66.613281 C 25.636719 65.597656 25.753906 64.554688 25.425781 63.570312 Z M 25.425781 63.570312 " fill-opacity="1" fill-rule="nonzero"/><path fill="#fd5368" d="M 20.570312 63.714844 C 19.410156 63.757812 18.257812 63.789062 17.105469 63.78125 C 17.082031 71.875 16.902344 79.980469 16.855469 88.074219 C 17.988281 88.046875 19.125 88.039062 20.257812 88.046875 C 20.316406 79.9375 20.390625 71.816406 20.570312 63.714844 Z M 20.570312 63.714844 " fill-opacity="1" fill-rule="nonzero"/><path fill="#fd5368" d="M 15.375 63.847656 C 14.246094 63.925781 13.121094 64.023438 11.984375 64.015625 C 11.792969 72.035156 11.835938 80.070312 11.742188 88.097656 C 12.851562 88.089844 13.960938 88.074219 15.070312 88.066406 C 15.164062 79.996094 15.289062 71.917969 15.375 63.847656 Z M 15.375 63.847656 " fill-opacity="1" fill-rule="nonzero"/><path fill="#fd5368" d="M 10.238281 64.109375 C 9.195312 64.167969 8.136719 64.210938 7.121094 64.488281 C 6.632812 68.4375 6.785156 72.421875 6.523438 76.390625 C 6.4375 79.660156 6.378906 82.929688 6.421875 86.199219 C 6.414062 86.863281 6.582031 87.601562 7.167969 87.988281 C 8.101562 88.175781 9.070312 88.082031 10.019531 88.125 C 10.035156 80.113281 10.210938 72.109375 10.238281 64.109375 Z M 10.238281 64.109375 " fill-opacity="1" fill-rule="nonzero"/><g clip-path="url(#57ee4a97b1)"><path fill="#fd5368" d="M 224.757812 89.820312 C 222.734375 87.621094 219.808594 86.300781 216.816406 86.257812 C 213.957031 86.207031 211.089844 86.242188 208.234375 86.265625 C 207.003906 86.214844 205.878906 86.8125 204.667969 86.847656 C 201.777344 86.710938 198.878906 86.898438 195.976562 86.828125 C 199.582031 89.167969 201.820312 93.210938 202.417969 97.410156 C 203.164062 101.546875 202.1875 105.917969 200.046875 109.5 C 201.886719 112.15625 204.625 114.367188 207.898438 114.835938 C 210.671875 115.140625 213.453125 114.902344 216.226562 115.054688 C 219.460938 115.222656 222.683594 113.804688 224.867188 111.449219 C 230.136719 105.558594 230.164062 95.628906 224.757812 89.820312 M 219.613281 92.636719 C 221.65625 93.460938 223.160156 95.351562 223.773438 97.4375 C 224.640625 100.261719 224.355469 103.488281 222.742188 105.984375 C 221.699219 107.597656 219.984375 108.917969 218 108.984375 C 215.914062 109.121094 213.933594 107.910156 212.773438 106.222656 C 210.351562 102.765625 210.527344 97.714844 213.160156 94.417969 C 214.664062 92.5625 217.363281 91.671875 219.613281 92.636719 Z M 219.613281 92.636719 " fill-opacity="1" fill-rule="nonzero"/></g><g clip-path="url(#5d76a725e5)"><path fill="#fd5368" d="M 201.367188 8.800781 C 186.402344 6.136719 171.449219 3.402344 156.480469 0.789062 C 156.519531 5.941406 156.480469 11.101562 156.597656 16.246094 C 157.445312 12.910156 158.175781 9.539062 158.976562 6.179688 C 173.410156 7.765625 187.808594 9.574219 202.238281 11.121094 C 211.535156 12.28125 220.867188 13.171875 230.15625 14.375 C 231.363281 14.542969 232.582031 14.609375 233.800781 14.617188 C 222.96875 12.808594 212.175781 10.726562 201.367188 8.800781 Z M 201.367188 8.800781 " fill-opacity="1" fill-rule="nonzero"/></g><path fill="#fd5368" d="M 231.289062 92.03125 C 230.105469 92.050781 228.917969 92.058594 227.734375 92.023438 C 229.667969 95.351562 230.105469 99.371094 229.488281 103.128906 C 229.011719 106.441406 227.457031 109.59375 225.058594 111.9375 C 227.480469 111.953125 229.910156 111.914062 232.332031 111.960938 C 231.707031 107.699219 231.238281 103.414062 230.597656 99.152344 C 231.011719 98.765625 230.875 98.175781 230.933594 97.671875 C 231.136719 97.335938 231.253906 96.964844 231.238281 96.570312 C 231.289062 95.058594 231.238281 93.535156 231.289062 92.03125 Z M 231.289062 92.03125 " fill-opacity="1" fill-rule="nonzero"/></g></g></g></svg>